PathFileType	4	(X/Y/Z)	Trial59_Left_Knee_markers_cropped.trc
DataRate	CameraRate	NumFrames	NumMarkers	Units	OrigDataRate	OrigDataStartFrame	OrigNumFrames																																																																																													
200	200	6	27	m	200	25	101
Frame#	Time	R_ASIS			L_ASIS			Sacral			L_Thigh_Superior			L_Thigh_Inferior			L_Thigh_Lateral			L_Shank_Superior			L_Shank_Inferior			L_Shank_Lateral			L_Heel			L_Midfoot_Superior			L_Midfoot_Lateral			L_Toe			R_Thigh_Superior			R_Thigh_Inferior			R_Thigh_Lateral			R_Shank_Superior			R_Shank_Lateral			R_Shank_Inferior			R_Heel			R_Midfoot_Superior			R_Midfoot_Lateral			R_Toe
		X1	Y1	Z1	X2	Y2	Z2	X3	Y3	Z3	X4	Y4	Z4	X5	Y5	Z5	X6	Y6	Z6	X7	Y7	Z7	X8	Y8	Z8	X9	Y9	Z9	X10	Y10	Z10	X11	Y11	Z11	X12	Y12	Z12	X13	Y13	Z13	X14	Y14	Z14	X15	Y15	Z15	X16	Y16	Z16	X17	Y17	Z17	X18	Y18	Z18	X19	Y19	Z19	X20	Y20	Z20	X21	Y21	Z21	X22	Y22	Z22	X23	Y23	Z23

26	   0.125	   -0.60869787072501	    0.92255625017188	   -0.38677166487682	   -0.58855328001277	    0.96813181067995	   -0.65687252455826	   -0.81218896626071	    1.02316662879374	   -0.52604442675619	   -0.52012549018599	    0.77534501468516	   -0.60039647902557	   -0.49007949541659	    0.57866142403063	   -0.58749628071522	   -0.56191564036378	    0.65886712882564	   -0.67680447893406	   -0.54093780064593	    0.43055090026221	   -0.62093815875218	   -0.67365143386267	    0.24687717345919	   -0.66461135017965	   -0.65732614518263	    0.37968047769386	   -0.71247672596045	   -0.85996108426013	    0.15614191184231	   -0.68376751067572	   -0.68431838221244	    0.15099562711364	   -0.70021478382123	   -0.77597693351927	    0.13277344794081	   -0.75061893101757	   -0.58189794366251	    0.05670895745414	   -0.71649561431945	   -0.56988516058567	    0.72473385829390	   -0.42847978611144	   -0.57916708053103	    0.56996788059318	   -0.46860455081993	   -0.66173296758906	    0.61537816656045	   -0.38887510290037	   -0.60546357925078	    0.39680387225445	   -0.47110363225401	   -0.62742382317832	    0.19912118532924	   -0.49071798240877	   -0.67858935586324	    0.28558369062805	   -0.42077142988322	   -0.75751625402897	    0.03612932948358	   -0.53877133618914	   -0.58701067459021	    0.09075184290207	   -0.49329752525939	   -0.67686231372292	    0.02822673070913	   -0.46143837978561	   -0.46871792147029	    0.03909479054929	   -0.46260593230226
27	   0.130	   -0.60906047516193	    0.92175736869118	   -0.38697435330437	   -0.58839006784478	    0.96801788954469	   -0.65673999906550	   -0.81146340284474	    1.02502346636666	   -0.52587678656765	   -0.52301600659318	    0.77317346571669	   -0.60131538423414	   -0.49647432584212	    0.57590617582193	   -0.58907897260097	   -0.56698262577900	    0.65789129472085	   -0.67808054500772	   -0.55158581653326	    0.42911666209922	   -0.62387976825030	   -0.69134437256730	    0.25122439722293	   -0.66996144849250	   -0.66975890542705	    0.38378272410014	   -0.71617040598507	   -0.88108821154528	    0.16827447172826	   -0.69050398847245	   -0.70567843000194	    0.15640615334565	   -0.70683166470215	   -0.79795474302910	    0.14243652659438	   -0.75752920511326	   -0.60710012631108	    0.05835540600931	   -0.72400320352507	   -0.57070874379591	    0.72465754071169	   -0.42907772704698	   -0.58031288031764	    0.57006901963751	   -0.46901211450879	   -0.66259672143151	    0.61543142673423	   -0.38907693810381	   -0.60630013588707	    0.39704841742621	   -0.47113859051471	   -0.62801308680912	    0.19920094371769	   -0.49060124121933	   -0.67938631024725	    0.28568313766899	   -0.42081358331169	   -0.75754441258597	    0.03615417281960	   -0.53875356143086	   -0.58702623593677	    0.09077075481025	   -0.49328041822029	   -0.67686729402695	    0.02822361306949	   -0.46143712429941	   -0.46872624008635	    0.03911340557456	   -0.46260116613950
28	   0.135	   -0.60942248789947	    0.92087922009891	   -0.38721213023168	   -0.58832276476331	    0.96783923221791	   -0.65662519504733	   -0.81071654093760	    1.02693215396646	   -0.52567397883304	   -0.52627648713631	    0.77078815501385	   -0.60233236541920	   -0.50352822008279	    0.57295912512502	   -0.59069427684777	   -0.57256180684304	    0.65680968762468	   -0.67942534193414	   -0.56313801409631	    0.42772389960939	   -0.62691465955048	   -0.71012810988227	    0.25634482298318	   -0.67535703712221	   -0.68297723694842	    0.38834460029251	   -0.71987919057201	   -0.90313785598297	    0.18185050233145	   -0.69717339257653	   -0.72827295732712	    0.16287928024116	   -0.71353909713689	   -0.82106751174246	    0.15340841098193	   -0.76445612360999	   -0.63402225898102	    0.06096123270721	   -0.73171716025874	   -0.57151548198087	    0.72459218081741	   -0.42974536390928	   -0.58143173753949	    0.57015530905469	   -0.46947345434283	   -0.66340311706947	    0.61545536110129	   -0.38929340523752	   -0.60711316475619	    0.39729132401542	   -0.47120051151408	   -0.62861451011651	    0.19929063090072	   -0.49048305391515	   -0.68014517427334	    0.28580164071233	   -0.42083088474436	   -0.75756214698638	    0.03617722973046	   -0.53873251377906	   -0.58703937954141	    0.09077358345493	   -0.49327343454313	   -0.67686891676765	    0.02821948417616	   -0.46143260975419	   -0.46873265521311	    0.03911448372636	   -0.46260818325046
29	   0.140	   -0.60979872818920	    0.91993184297464	   -0.38749158138431	   -0.58836663231227	    0.96758404370717	   -0.65655209986801	   -0.80996936100689	    1.02886929135719	   -0.52544677294954	   -0.52986080608861	    0.76826758152783	   -0.60340143216179	   -0.51104860676692	    0.56992212400839	   -0.59227997960966	   -0.57850789552680	    0.65566438299227	   -0.68079302452429	   -0.57537800605351	    0.42645088997302	   -0.62994122870101	   -0.72976291737375	    0.26240035484327	   -0.68062266719781	   -0.69673876797393	    0.39347020825842	   -0.72346330950076	   -0.92580214310943	    0.19707301462135	   -0.70353435185923	   -0.75187372231328	    0.17060422515487	   -0.72013303364513	   -0.84505345243230	    0.16589269605487	   -0.77117772398933	   -0.66247840534793	    0.06474955714850	   -0.73944857210423	   -0.57230896553097	    0.72453460691775	   -0.43046501541536	   -0.58252231072657	    0.57022778966630	   -0.46997689990221	   -0.66416354294916	    0.61545632132783	   -0.38952372981474	   -0.60790472724470	    0.39753252873062	   -0.47128542660965	   -0.62921949353196	    0.19939581242485	   -0.49036473179806	   -0.68085515163075	    0.28593955410878	   -0.42082089073648	   -0.75756542652943	    0.03619767367705	   -0.53871090582522	   -0.58704570944042	    0.09075687430222	   -0.49327856350176	   -0.67686702101671	    0.02821502166998	   -0.46142443937437	   -0.46873525456224	    0.03909085460634	   -0.46262950829863
30	   0.145	   -0.61020113323712	    0.91893048298012	   -0.38781514110356	   -0.58852890928255	    0.96724451995086	   -0.65654067896616	   -0.80924206061514	    1.03080622953587	   -0.52521048482714	   -0.53369497450690	    0.76569757877097	   -0.60448521992707	   -0.51879961100811	    0.56689589218083	   -0.59379671711541	   -0.58464818407261	    0.65449986619184	   -0.68215190815205	   -0.58804108771305	    0.42537220754661	   -0.63286875071499	   -0.74994231012222	    0.26953905751455	   -0.68557725075226	   -0.71075219229284	    0.39925097603599	   -0.72678399230190	   -0.94869778625951	    0.21411302155041	   -0.70931945804722	   -0.77619000312431	    0.17974820656570	   -0.72639528864213	   -0.86957970459453	    0.18006826686562	   -0.77744853647557	   -0.69220419965941	    0.06994241003145	   -0.74699176107128	   -0.57310099496387	    0.72448125866165	   -0.43121372203923	   -0.58358811517121	    0.57029055233617	   -0.47050684590825	   -0.66489551674565	    0.61544345698695	   -0.38976522538909	   -0.60867715382568	    0.39777477786782	   -0.47138641818932	   -0.62981967166463	    0.19952028458119	   -0.49024590714697	   -0.68151197159066	    0.28609602675578	   -0.42078236106403	   -0.75755302119451	    0.03621533825606	   -0.53869013099593	   -0.58704172328277	    0.09071918926355	   -0.49329622106287	   -0.67686161839941	    0.02821066944058	   -0.46141208460910	   -0.46873192896867	    0.03903751186176	   -0.46266718500904
31	   0.150	   -0.61063618136478	    0.91789380124479	   -0.38818063044287	   -0.58880794934507	    0.96681826455594	   -0.65660258638196	   -0.80855315988467	    1.03270952771828	   -0.52498452525952	   -0.53767692441737	    0.76316428562668	   -0.60556128523168	   -0.52651808880823	    0.56397292960338	   -0.59522791833787	   -0.59079170009373	    0.65335956339891	   -0.68348556676255	   -0.60082856940871	    0.42455374732961	   -0.63562284496093	   -0.77030253343824	    0.27788461742677	   -0.69004645626164	   -0.72469110510814	    0.40575862458782	   -0.72971181588301	   -0.97137833982627	    0.23308943919422	   -0.71425465055574	   -0.80087418443444	    0.19044521006344	   -0.73210840275794	   -0.89425016586069	    0.19607328512708	   -0.78301693905025	   -0.72285747309933	    0.07674954762493	   -0.75414136806268	   -0.57390488434571	    0.72442917029747	   -0.43196447252559	   -0.58463198283386	    0.57035006913436	   -0.47104525399368	   -0.66561633276433	    0.61542682291676	   -0.39001382052439	   -0.60942992282071	    0.39802076087391	   -0.47149476506638	   -0.63039954621064	    0.19966541660874	   -0.49012815618564	   -0.68211473568825	    0.28626795079565	   -0.42071561259215	   -0.75752786680745	    0.03623178514570	   -0.53866907045652	   -0.58702568045464	    0.09066196192679	   -0.49332506007293	   -0.67685288902003	    0.02820649570424	   -0.46139494549036	   -0.46872151916216	    0.03895296478837	   -0.46272121815769
